<svg width="22" height="19" viewBox="0 0 22 19" fill="none" xmlns="http://www.w3.org/2000/svg">
<path d="M19.7195 1.61183C19.2088 1.10083 18.6023 0.695472 17.9349 0.41891C17.2674 0.142347 16.552 0 15.8295 0C15.107 0 14.3916 0.142347 13.7242 0.41891C13.0567 0.695472 12.4503 1.10083 11.9395 1.61183L10.8795 2.67183L9.81951 1.61183C8.78782 0.580134 7.38855 0.000534762 5.92951 0.000534773C4.47048 0.000534784 3.07121 0.580134 2.03951 1.61183C1.00782 2.64352 0.428223 4.04279 0.428223 5.50183C0.428223 6.96086 1.00782 8.36013 2.03951 9.39183L3.09951 10.4518L10.8795 18.2318L18.6595 10.4518L19.7195 9.39183C20.2305 8.88107 20.6359 8.27464 20.9124 7.60718C21.189 6.93972 21.3313 6.22431 21.3313 5.50183C21.3313 4.77934 21.189 4.06393 20.9124 3.39647C20.6359 2.72901 20.2305 2.12258 19.7195 1.61183Z" fill="#BA0707"/>
</svg>
